# xmcd
#
# Track frame offsets: 
#        150
#        21661
#        37712
#        62765
#        86664
#        99161
#        114521
#        134549
#        167757
#        190824
#
# Disc length: 2856 seconds
#
# Revision: 0
# Processed by: cddbd v1.5.1PL2 Copyright (c) Steve Scherf et al.
# Submitted via: ExactAudioCopy v0.95b3
#
DISCID=7e0b260a
DTITLE=Electric Lady Band - Live At The Chesterfield Café
DYEAR=1998
DGENRE=Blues
TTITLE0=Tel Me
TTITLE1=If You Love Me Like You Say
TTITLE2=Letter For My Boyfriend
TTITLE3=Red House
TTITLE4=Side Tracked
TTITLE5=Hound Dog
TTITLE6=Got My Mojo Working
TTITLE7=Born Under A Bad Sign
TTITLE8=(I Got) Stomach Ach
TTITLE9=Suzie Q
EXTD=
EXTT0=
EXTT1=
EXTT2=
EXTT3=
EXTT4=
EXTT5=
EXTT6=
EXTT7=
EXTT8=
EXTT9=
PLAYORDER=
